<?xml version="1.0" standalone="no"?>
<!DOCTYPE svg PUBLIC "-//W3C//DTD SVG 20010904//EN"
 "http://www.w3.org/TR/2001/REC-SVG-20010904/DTD/svg10.dtd">
<svg version="1.0" xmlns="http://www.w3.org/2000/svg"
 width="512.000000pt" height="512.000000pt" viewBox="0 0 512.000000 512.000000"
 preserveAspectRatio="xMidYMid meet">
<metadata>
Created by potrace 1.14, written by Peter Selinger 2001-2017
</metadata>
<g transform="translate(0.000000,512.000000) scale(0.100000,-0.100000)"
fill="#000000" stroke="none">
<path d="M2480 4817 c-86 -50 -322 -186 -875 -505 -214 -124 -536 -310 -715
-413 l-325 -188 0 -1156 0 -1156 270 -155 c149 -86 288 -166 310 -179 22 -12
128 -73 235 -135 107 -61 213 -122 235 -135 22 -12 141 -80 265 -152 684 -394
669 -386 696 -374 21 9 702 402 1787 1028 l197 115 -2 1155 -3 1155 -495 284
c-1150 661 -1487 854 -1496 854 -5 0 -43 -20 -84 -43z m-567 -1222 l87 -50 0
-857 0 -858 689 0 689 0 49 -87 c26 -49 49 -91 51 -95 2 -4 -21 -47 -50 -97
l-53 -91 -872 0 -873 0 0 1043 0 1043 93 52 c50 28 95 50 98 49 3 -1 45 -24
92 -52z"/>
</g>
</svg>
